# xmcd
#
# Track frame offsets: 
#        150
#        14885
#        36995
#        53735
#        67735
#        97550
#        114137
#        124492
#        135782
#        146815
#        160030
#        172940
#        187797
#        199702
#        211887
#        223990
#
# Disc length: 3184 seconds
#
# Revision: 0
# Processed by: cddbd v1.5.1PL2 Copyright (c) Steve Scherf et al.
# Submitted via: ExactAudioCopy v0.95b4
#
DISCID=d70c6e10
DTITLE=Dutch Tilders - Eureke Files 1975-1980
DYEAR=1990
DGENRE=Blues
TTITLE0=Baby Whats Woring
TTITLE1=Good Morning Blues
TTITLE2=Just a Dream
TTITLE3=Writing You This Letter
TTITLE4=Next in Line
TTITLE5=Candyman
TTITLE6=21st Birthday Song
TTITLE7=Don't You Tell on Me
TTITLE8=Stoned Agin
TTITLE9=Times Are Getting Tougher Than Tough
TTITLE10=Something to Work On
TTITLE11=Worried Life Blues
TTITLE12=Good Moring Cigarette
TTITLE13=Long Tall mama
TTITLE14=Don't Take Long
TTITLE15=The Hunter
EXTD=
EXTT0=
EXTT1=
EXTT2=
EXTT3=
EXTT4=
EXTT5=
EXTT6=
EXTT7=
EXTT8=
EXTT9=
EXTT10=
EXTT11=
EXTT12=
EXTT13=
EXTT14=
EXTT15=
PLAYORDER=
